<svg xmlns="http://www.w3.org/2000/svg" xmlns:xlink="http://www.w3.org/1999/xlink" viewBox="0,0,256,256" width="72px" height="72px" fill-rule="nonzero"><g fill="#ffffff" fill-rule="nonzero" stroke="none" stroke-width="1" stroke-linecap="butt" stroke-linejoin="miter" stroke-miterlimit="10" stroke-dasharray="" stroke-dashoffset="0" font-family="none" font-weight="none" font-size="none" text-anchor="none" style="mix-blend-mode: normal"><g transform="scale(10.66667,10.66667)"><path d="M23.005,16.974c-0.259,-2.601 -1.549,-4.987 -3.413,-6.775c-0.346,-0.332 -0.436,-0.847 -0.19,-1.258l1.456,-2.427c0.284,-0.474 0.131,-1.088 -0.343,-1.372c-0.474,-0.284 -1.088,-0.13 -1.372,0.343l-1.321,2.201c-0.261,0.435 -0.811,0.616 -1.268,0.395c-1.416,-0.687 -2.966,-1.081 -4.554,-1.081c-1.588,0 -3.138,0.394 -4.554,1.081c-0.456,0.221 -1.007,0.04 -1.268,-0.395l-1.321,-2.201c-0.284,-0.472 -0.897,-0.627 -1.372,-0.342c-0.473,0.284 -0.627,0.898 -0.342,1.372l1.456,2.427c0.246,0.411 0.156,0.926 -0.19,1.258c-1.864,1.788 -3.154,4.174 -3.413,6.775c-0.123,1.229 0.287,2.025 1.441,2.025h19.126c1.154,0 1.564,-0.796 1.442,-2.026zM7.5,16c-0.828,0 -1.5,-0.672 -1.5,-1.5c0,-0.828 0.672,-1.5 1.5,-1.5c0.828,0 1.5,0.672 1.5,1.5c0,0.828 -0.672,1.5 -1.5,1.5zM16.5,16c-0.828,0 -1.5,-0.672 -1.5,-1.5c0,-0.828 0.672,-1.5 1.5,-1.5c0.828,0 1.5,0.672 1.5,1.5c0,0.828 -0.672,1.5 -1.5,1.5z"></path></g></g></svg>