<svg width="1490" height="1072" viewBox="0 0 1490 1072" fill="none" xmlns="http://www.w3.org/2000/svg">
<mask id="mask0_2536_30" style="mask-type:alpha" maskUnits="userSpaceOnUse" x="0" y="0" width="1490" height="1072">
<rect width="1486.73" height="1064.48" transform="matrix(0.999987 0.00506075 -0.00240767 0.999997 2.5625 0)" fill="#D9D9D9"/>
</mask>
<g mask="url(#mask0_2536_30)">
<path d="M1795.31 1444.52C1795.09 1444.52 1794.88 1444.36 1794.72 1444.13L1724.95 1339.34L1524.37 1338.58C1524.1 1338.58 1523.89 1338.43 1523.73 1338.12L954.934 252.62L627.262 249.637L107.014 1332.79C106.855 1333.1 106.642 1333.25 106.377 1333.25L-222.677 1332.06C-223.102 1332.06 -223.475 1331.51 -223.475 1330.89C-223.475 1330.27 -223.103 1329.73 -222.678 1329.73L105.95 1330.93L626.198 247.777C626.357 247.467 626.57 247.312 626.835 247.311L955.305 250.294C955.57 250.293 955.783 250.448 955.943 250.758L1524.74 1336.25L1725.27 1337.02C1725.48 1337.02 1725.69 1337.17 1725.85 1337.4L1795.89 1442.58C1796.21 1443.04 1796.21 1443.74 1795.89 1444.21C1795.73 1444.36 1795.52 1444.52 1795.31 1444.52Z" fill="#EBEFF6"/>
<path d="M1818.93 1085.3L-221.439 1075.14C-221.864 1075.14 -222.237 1074.6 -222.237 1073.98C-222.237 1073.36 -221.812 1072.74 -221.44 1072.81L1818.93 1082.97C1819.35 1082.97 1819.72 1083.51 1819.72 1084.13C1819.72 1084.75 1819.4 1085.3 1818.93 1085.3Z" fill="#EBEFF6"/>
<path d="M1819.84 908.955L-220.529 896.936C-220.954 896.936 -221.327 896.394 -221.327 895.774C-221.327 895.153 -220.956 894.61 -220.53 894.61L1819.84 906.628C1820.26 906.628 1820.63 907.171 1820.63 907.791C1820.63 908.411 1820.26 908.954 1819.84 908.955Z" fill="#EBEFF6"/>
<path d="M1820.46 779.45L-219.911 766.113C-220.337 766.114 -220.709 765.571 -220.71 764.951C-220.71 764.331 -220.338 763.787 -219.913 763.787L1820.45 777.124C1820.88 777.124 1821.25 777.666 1821.25 778.286C1821.25 778.984 1820.88 779.45 1820.46 779.45Z" fill="#EBEFF6"/>
<path d="M1820.93 682.826C1820.83 682.826 1820.67 682.749 1820.56 682.671L1817.37 680.347L-219.436 666.077C-219.861 666.077 -220.234 665.535 -220.234 664.914C-220.235 664.294 -219.863 663.751 -219.437 663.751L1817.53 678.098C1817.63 678.098 1817.79 678.176 1817.9 678.253L1821.25 680.732C1821.62 681.042 1821.78 681.74 1821.62 682.283C1821.52 682.593 1821.2 682.826 1820.93 682.826Z" fill="#EBEFF6"/>
<path d="M-154.72 1423.43C-154.932 1423.43 -155.092 1423.35 -155.251 1423.12C-155.571 1422.65 -155.624 1421.95 -155.306 1421.49L-10.3722 1189.81C-10.2128 1189.58 -10.0002 1189.42 -9.78751 1189.42L1812.61 1197.44C1812.82 1197.44 1812.98 1197.51 1813.14 1197.75L1818.89 1204.8C1819.21 1205.19 1819.26 1205.96 1818.99 1206.43C1818.73 1206.89 1818.2 1206.97 1817.88 1206.58L1812.4 1199.76L-9.36081 1191.75L-154.082 1423.04C-154.294 1423.27 -154.507 1423.43 -154.72 1423.43Z" fill="#EBEFF6"/>
<path d="M1361.97 1439.84C1361.71 1439.84 1361.44 1439.61 1361.28 1439.22L907.766 251.574C907.553 251.031 907.712 250.333 908.084 250.023C908.456 249.712 908.935 249.945 909.148 250.487L1362.66 1438.05C1362.88 1438.6 1362.72 1439.3 1362.34 1439.61C1362.24 1439.76 1362.13 1439.84 1361.97 1439.84Z" fill="#EBEFF6"/>
<path d="M1578.67 1442.14C1578.4 1442.14 1578.19 1441.98 1578.03 1441.67L1524 1338.58L106.749 1333.33L62.5582 1425.26C62.2927 1425.8 61.8141 1425.88 61.4417 1425.57C61.0693 1425.19 61.0157 1424.49 61.2281 1423.94L105.631 1331.47C105.79 1331.16 106.056 1331.01 106.269 1331.01L1524.31 1336.25C1524.58 1336.25 1524.79 1336.41 1524.95 1336.72L1579.25 1440.28C1579.52 1440.82 1579.46 1441.52 1579.09 1441.91C1578.98 1442.06 1578.83 1442.14 1578.67 1442.14Z" fill="#EBEFF6"/>
<path d="M1145.33 1437.46C1145.01 1437.46 1144.69 1437.15 1144.59 1436.69L860.865 250.993C860.705 250.373 860.917 249.752 861.342 249.519C861.768 249.286 862.193 249.596 862.353 250.216L1146.08 1435.91C1146.24 1436.53 1146.02 1437.15 1145.6 1437.38C1145.49 1437.46 1145.39 1437.46 1145.33 1437.46Z" fill="#EBEFF6"/>
<path d="M278.614 1428.11C278.507 1428.11 278.401 1428.11 278.241 1427.95C277.869 1427.64 277.656 1426.94 277.868 1426.4L673.099 248.358C673.311 247.815 673.79 247.505 674.162 247.815C674.535 248.125 674.748 248.822 674.535 249.365L279.358 1427.48C279.198 1427.87 278.933 1428.1 278.614 1428.11Z" fill="#EBEFF6"/>
<path d="M928.64 1435.08C928.268 1435.08 927.895 1434.7 927.842 1434.08L813.91 250.334C813.856 249.714 814.175 249.093 814.6 249.015C815.026 248.938 815.451 249.402 815.505 250.023L929.437 1433.84C929.49 1434.46 929.171 1435.08 928.746 1435.16C928.693 1435.08 928.693 1435.08 928.64 1435.08Z" fill="#EBEFF6"/>
<path d="M495.307 1430.41C495.254 1430.41 495.147 1430.41 495.094 1430.33C494.668 1430.17 494.402 1429.48 494.561 1428.93L720.107 248.939C720.213 248.319 720.691 247.931 721.064 248.163C721.489 248.318 721.755 249.016 721.596 249.559L496.051 1429.63C495.945 1430.09 495.626 1430.41 495.307 1430.41Z" fill="#EBEFF6"/>
<path d="M711.947 1432.78L711.893 1432.78C711.468 1432.71 711.095 1432.16 711.148 1431.54L766.955 249.676C767.008 249.055 767.38 248.59 767.805 248.589C768.231 248.666 768.603 249.209 768.551 249.829L712.744 1431.7C712.744 1432.32 712.372 1432.78 711.947 1432.78Z" fill="#EBEFF6"/>
<path d="M-157.386 371.268L-217.954 370.776C-218.379 370.776 -218.752 370.233 -218.752 369.613C-218.752 368.993 -218.381 368.45 -217.955 368.449L-157.547 368.942L-125.118 353.56C-125.012 353.56 -124.959 353.482 -124.853 353.482L-61.3602 354.049L-33.2914 339.68C-33.1851 339.602 -33.132 339.602 -33.0256 339.602L28.2865 340.171L52.5272 326.735C52.6335 326.657 52.7398 326.657 52.793 326.657L112.084 327.151L132.922 314.57C133.029 314.493 133.082 314.493 133.241 314.493L190.618 314.987L208.426 303.185C208.532 303.108 208.638 303.03 208.745 303.108L264.314 303.604L279.409 292.502C279.516 292.424 279.622 292.424 279.782 292.347L333.649 292.844L346.299 282.365C346.405 282.287 346.512 282.132 346.671 282.209L398.943 282.709L409.414 272.851C409.52 272.696 409.626 272.696 409.839 272.696L460.569 273.119L469.072 263.883C469.231 263.728 469.338 263.651 469.55 263.65L518.845 264.074L532.129 246.848C532.288 246.693 532.448 246.537 532.66 246.537L626.729 247.389C627.154 247.389 627.527 247.931 627.527 248.552C627.528 249.172 627.103 249.638 626.73 249.715L532.981 248.863L519.696 266.09C519.537 266.245 519.378 266.323 519.165 266.401L469.817 265.977L461.314 275.212C461.155 275.367 461.049 275.445 460.836 275.445L410.053 275.022L399.583 284.879C399.476 285.035 399.37 285.035 399.157 285.035L346.885 284.536L334.235 295.015C334.129 295.093 334.023 295.17 333.863 295.171L280.049 294.595L264.953 305.697C264.847 305.775 264.74 305.852 264.581 305.853L209.012 305.356L191.205 317.158C191.098 317.236 190.992 317.236 190.886 317.236L133.508 316.741L112.671 329.321C112.564 329.399 112.458 329.399 112.352 329.399L53.007 328.906L28.7663 342.342C28.66 342.42 28.5537 342.42 28.5005 342.42L-32.8116 341.851L-60.8804 356.22C-60.9867 356.298 -61.0399 356.298 -61.1463 356.298L-124.745 355.809L-157.174 371.19C-157.227 371.268 -157.333 371.268 -157.386 371.268Z" fill="#EBEFF6"/>
<path d="M1822.17 428.702C1822.07 428.703 1822.01 428.703 1821.91 428.625L1809.94 422.819L-218.147 405.905C-218.572 405.905 -218.945 405.363 -218.945 404.742C-218.945 404.122 -218.573 403.579 -218.148 403.578L1810.04 420.493C1810.15 420.492 1810.2 420.492 1810.31 420.57L1822.44 426.453C1822.86 426.686 1823.08 427.306 1822.92 427.926C1822.81 428.392 1822.49 428.702 1822.17 428.702Z" fill="#EBEFF6"/>
<path d="M1821.98 464.685C1821.87 464.685 1821.82 464.685 1821.71 464.607L1819.48 463.446L-218.336 446.85C-218.762 446.85 -219.134 446.308 -219.135 445.687C-219.135 445.067 -218.71 444.524 -218.338 444.523L1819.64 461.119C1819.74 461.119 1819.8 461.119 1819.9 461.197L1822.3 462.435C1822.72 462.668 1822.94 463.288 1822.78 463.908C1822.62 464.374 1822.3 464.684 1821.98 464.685Z" fill="#EBEFF6"/>
<path d="M1820.93 680.422L1817.58 680.425C1817.48 680.425 1817.32 680.347 1817.21 680.27L1317.84 315.13L264.794 305.852L-219.013 661.889C-219.385 662.2 -219.864 661.967 -220.077 661.347C-220.29 660.804 -220.131 660.106 -219.705 659.796L264.261 303.604C264.367 303.526 264.526 303.449 264.633 303.449L1318.05 312.803C1318.16 312.803 1318.32 312.881 1318.43 312.958L1817.79 678.021L1820.98 678.018C1821.41 678.018 1821.78 678.56 1821.78 679.18C1821.73 679.878 1821.36 680.422 1820.93 680.422Z" fill="#EBEFF6"/>
<path d="M1821.74 511.368L-218.575 495.24C-219 495.24 -219.373 494.697 -219.373 494.077C-219.374 493.457 -219.002 492.914 -218.576 492.913L1821.74 509.042C1822.16 509.041 1822.54 509.584 1822.54 510.204C1822.54 510.902 1822.22 511.368 1821.74 511.368Z" fill="#EBEFF6"/>
<path d="M1820.5 768.671C1820.4 768.671 1820.24 768.594 1820.13 768.516L1768.47 726.451L-172.402 713.264L-219.441 752.077C-219.813 752.387 -220.291 752.233 -220.504 751.613C-220.717 751.07 -220.611 750.372 -220.186 750.061L-172.988 711.093C-172.882 711.015 -172.829 710.938 -172.616 710.938L1768.68 724.125C1768.84 724.125 1768.95 724.202 1769.06 724.28L1820.87 766.499C1821.25 766.809 1821.41 767.507 1821.19 768.05C1821.03 768.438 1820.77 768.671 1820.5 768.671Z" fill="#EBEFF6"/>
<path d="M1821.51 568.909L-218.861 553.4C-219.287 553.401 -219.659 552.858 -219.66 552.238C-219.66 551.617 -219.341 550.997 -218.863 551.074L1821.45 566.582C1821.88 566.582 1822.25 567.124 1822.25 567.745C1822.3 568.365 1821.93 568.908 1821.51 568.909Z" fill="#EBEFF6"/>
<path d="M1819.98 876.85C1819.82 876.85 1819.66 876.773 1819.55 876.695L1778.91 839.352L-177.443 827.185L-219.961 867.158C-220.333 867.468 -220.811 867.313 -221.078 866.848C-221.291 866.306 -221.185 865.608 -220.866 865.22L-178.135 825.092C-178.029 824.937 -177.869 824.937 -177.71 824.936L1779.12 837.102C1779.28 837.102 1779.44 837.18 1779.54 837.257L1820.35 874.756C1820.72 875.066 1820.83 875.841 1820.62 876.384C1820.51 876.617 1820.24 876.85 1819.98 876.85Z" fill="#EBEFF6"/>
<path d="M1821.12 639.089L-219.247 624.279C-219.672 624.279 -220.045 623.737 -220.045 623.116C-220.045 622.496 -219.673 621.953 -219.248 621.952L1821.12 636.763C1821.55 636.762 1821.92 637.305 1821.92 637.925C1821.92 638.546 1821.6 639.089 1821.12 639.089Z" fill="#EBEFF6"/>
<path d="M1820.69 726.873L1768.63 726.529C1768.47 726.529 1768.37 726.452 1768.26 726.374L1248.6 303.246L334.129 295.093L-172.242 713.109C-172.349 713.186 -172.508 713.264 -172.615 713.264L-219.622 712.916C-220.048 712.916 -220.42 712.374 -220.421 711.753C-220.421 711.133 -220.049 710.59 -219.624 710.589L-172.829 710.938L333.543 292.844C333.649 292.767 333.755 292.689 333.915 292.689L1248.76 300.841C1248.92 300.841 1249.02 300.919 1249.13 300.996L1768.79 724.125L1820.64 724.469C1821.06 724.469 1821.44 725.011 1821.44 725.632C1821.49 726.329 1821.17 726.873 1820.69 726.873Z" fill="#EBEFF6"/>
<path d="M1822.31 397.296C1822.26 397.296 1822.15 397.296 1822.1 397.218L1801.78 387.93L1737.23 387.363C1737.12 387.363 1737.07 387.363 1736.96 387.286L1704.36 371.494L1641.98 370.925C1641.87 370.926 1641.82 370.926 1641.71 370.848L1613.36 356.138L1553.01 355.645C1552.9 355.646 1552.8 355.646 1552.74 355.568L1528.17 341.785L1469.73 341.291C1469.62 341.291 1469.51 341.292 1469.41 341.214L1448.18 328.359L1391.5 327.864C1391.39 327.864 1391.28 327.864 1391.18 327.786L1372.98 315.704L1318 315.207C1317.89 315.207 1317.73 315.13 1317.63 315.053L1302.15 303.744L1248.76 303.245C1248.6 303.246 1248.49 303.168 1248.39 303.091L1235.3 292.478L1183.45 291.978C1183.29 291.978 1183.13 291.901 1183.03 291.823L1172.12 281.829L1121.71 281.406C1121.55 281.406 1121.39 281.329 1121.23 281.174L1112.29 271.798L1063.26 271.374C1063.05 271.374 1062.89 271.296 1062.73 271.064L1055.6 262.229L1007.85 261.804C1007.64 261.804 1007.42 261.649 1007.26 261.417L1001.73 253.124L955.253 252.698C954.827 252.698 954.455 252.155 954.454 251.535C954.454 250.915 954.826 250.371 955.251 250.371L1002.1 250.797C1002.31 250.797 1002.53 250.952 1002.68 251.184L1008.22 259.477L1055.92 259.903C1056.13 259.903 1056.29 259.98 1056.45 260.213L1063.58 269.047L1112.61 269.471C1112.77 269.471 1112.93 269.548 1113.09 269.703L1122.03 279.079L1172.44 279.502C1172.6 279.502 1172.76 279.58 1172.86 279.657L1183.77 289.651L1235.62 290.151C1235.78 290.151 1235.88 290.228 1235.99 290.306L1249.08 300.919L1302.41 301.417C1302.52 301.417 1302.68 301.494 1302.78 301.572L1318.27 312.881L1373.2 313.378C1373.3 313.377 1373.41 313.377 1373.52 313.455L1391.71 325.537L1448.34 326.032C1448.45 326.032 1448.55 326.032 1448.66 326.11L1469.88 338.965L1528.33 339.459C1528.43 339.459 1528.54 339.459 1528.59 339.536L1553.17 353.319L1613.52 353.811C1613.63 353.811 1613.68 353.811 1613.79 353.889L1642.14 368.599L1704.51 369.167C1704.62 369.167 1704.67 369.167 1704.78 369.244L1737.39 385.037L1801.94 385.603C1801.99 385.603 1802.1 385.603 1802.15 385.68L1822.63 394.969C1823.06 395.124 1823.27 395.821 1823.16 396.442C1823.01 396.985 1822.69 397.295 1822.31 397.296Z" fill="#EBEFF6"/>
<path d="M1822.36 388.145L1801.84 388.007C1801.78 388.007 1801.68 388.007 1801.62 387.93L1766.84 372.062L1704.46 371.493C1704.36 371.494 1704.3 371.494 1704.2 371.416L1673.77 356.63L1613.42 356.138C1613.31 356.138 1613.26 356.138 1613.15 356.06L1586.66 342.279L1528.22 341.785C1528.11 341.785 1528.01 341.785 1527.95 341.708L1504.92 328.777L1448.29 328.281C1448.18 328.281 1448.08 328.282 1447.97 328.204L1428.02 316.123L1373.09 315.627C1372.98 315.627 1372.88 315.627 1372.77 315.549L1355.64 304.164L1302.31 303.666C1302.2 303.666 1302.04 303.589 1301.94 303.511L1287.31 292.822L1235.46 292.322C1235.3 292.323 1235.19 292.245 1235.09 292.168L1222.74 282.097L1172.33 281.674C1172.17 281.674 1172.01 281.596 1171.91 281.519L1161.59 272.067L1112.5 271.643C1112.34 271.643 1112.19 271.565 1112.03 271.41L1103.57 262.5L1055.81 262.074C1055.6 262.074 1055.44 261.997 1055.28 261.764L1048.52 253.395L1001.99 252.969C1001.57 252.969 1001.2 252.426 1001.2 251.806C1001.2 251.186 1001.57 250.643 1001.99 250.642L1048.79 251.068C1049 251.068 1049.16 251.146 1049.32 251.378L1056.08 259.748L1103.83 260.173C1103.99 260.173 1104.15 260.25 1104.31 260.405L1112.77 269.316L1161.8 269.74C1161.96 269.74 1162.12 269.817 1162.22 269.895L1172.54 279.347L1222.96 279.77C1223.11 279.77 1223.22 279.848 1223.33 279.925L1235.67 289.996L1287.52 290.495C1287.62 290.495 1287.78 290.573 1287.89 290.65L1302.52 301.339L1355.85 301.838C1355.96 301.837 1356.07 301.837 1356.17 301.915L1373.3 313.3L1428.23 313.797C1428.34 313.797 1428.45 313.797 1428.55 313.874L1448.5 325.955L1505.13 326.45C1505.24 326.45 1505.35 326.45 1505.4 326.528L1528.43 339.459L1586.87 339.953C1586.98 339.953 1587.03 339.952 1587.14 340.03L1613.63 353.811L1673.93 354.304C1674.04 354.303 1674.09 354.303 1674.19 354.381L1704.62 369.167L1767 369.735C1767.05 369.735 1767.16 369.735 1767.21 369.812L1801.99 385.681L1822.36 385.819C1822.79 385.818 1823.16 386.361 1823.16 386.981C1823.16 387.602 1822.79 388.145 1822.36 388.145Z" fill="#EBEFF6"/>
<path d="M1822.46 372.558L1767 372.062C1766.94 372.062 1766.84 372.062 1766.78 371.984L1734.34 357.2L1674.04 356.707C1673.93 356.707 1673.88 356.708 1673.77 356.63L1645.31 342.85L1586.93 342.356C1586.82 342.357 1586.77 342.357 1586.66 342.279L1561.82 329.35L1505.19 328.854C1505.08 328.854 1504.97 328.854 1504.92 328.777L1483.27 316.62L1428.34 316.123C1428.24 316.123 1428.13 316.123 1428.02 316.046L1409.3 304.662L1355.96 304.164C1355.86 304.164 1355.75 304.164 1355.64 304.087L1339.52 293.399L1287.68 292.899C1287.57 292.899 1287.41 292.822 1287.31 292.744L1273.53 282.675L1223.12 282.252C1222.96 282.252 1222.85 282.174 1222.74 282.097L1211.09 272.568L1162.01 272.144C1161.85 272.144 1161.69 272.067 1161.59 271.989L1151.85 263.002L1104.1 262.577C1103.94 262.577 1103.78 262.499 1103.62 262.344L1095.64 253.898L1049.11 253.472C1048.68 253.472 1048.31 252.93 1048.31 252.309C1048.31 251.689 1048.68 251.146 1049.11 251.146L1095.9 251.572C1096.06 251.572 1096.22 251.649 1096.38 251.804L1104.36 260.25L1152.11 260.675C1152.27 260.675 1152.43 260.753 1152.54 260.83L1162.28 269.817L1211.3 270.242C1211.46 270.241 1211.57 270.319 1211.68 270.396L1223.33 279.925L1273.74 280.348C1273.85 280.348 1274 280.425 1274.11 280.503L1287.89 290.572L1339.74 291.072C1339.84 291.072 1339.95 291.072 1340.06 291.149L1356.17 301.837L1409.51 302.335C1409.62 302.335 1409.72 302.335 1409.83 302.413L1428.55 313.797L1483.48 314.293C1483.59 314.293 1483.7 314.293 1483.75 314.371L1505.24 326.528L1561.87 327.023C1561.98 327.023 1562.03 327.023 1562.14 327.1L1586.98 340.03L1645.37 340.524C1645.47 340.524 1645.53 340.524 1645.63 340.601L1674.09 354.381L1734.39 354.873C1734.44 354.873 1734.55 354.873 1734.6 354.951L1767.05 369.735L1822.41 370.232C1822.83 370.231 1823.2 370.774 1823.2 371.394C1823.26 372.014 1822.89 372.558 1822.46 372.558Z" fill="#EBEFF6"/>
<path d="M1822.46 369.611C1822.4 369.611 1822.3 369.611 1822.25 369.534L1794.64 357.692L1734.39 357.2C1734.34 357.2 1734.23 357.2 1734.18 357.122L1703.75 343.267L1645.37 342.773C1645.26 342.773 1645.21 342.773 1645.1 342.696L1618.4 329.767L1561.82 329.272C1561.71 329.272 1561.66 329.272 1561.55 329.195L1538.2 317.039L1483.33 316.542C1483.22 316.542 1483.11 316.543 1483.06 316.465L1462.69 305.083L1409.35 304.584C1409.24 304.585 1409.14 304.585 1409.03 304.507L1391.37 293.743L1339.52 293.243C1339.42 293.244 1339.31 293.244 1339.21 293.166L1323.94 283.02L1273.53 282.597C1273.42 282.597 1273.26 282.52 1273.16 282.442L1260.12 272.915L1211.09 272.491C1210.93 272.491 1210.83 272.413 1210.72 272.336L1199.66 263.35L1151.9 262.924C1151.74 262.924 1151.58 262.847 1151.48 262.77L1142.22 254.247L1095.69 253.821C1095.27 253.821 1094.89 253.279 1094.89 252.658C1094.89 252.038 1095.26 251.495 1095.69 251.494L1142.48 251.921C1142.64 251.92 1142.8 251.998 1142.91 252.075L1152.17 260.598L1199.92 261.023C1200.08 261.023 1200.19 261.1 1200.29 261.178L1211.36 270.164L1260.39 270.588C1260.49 270.588 1260.65 270.666 1260.76 270.743L1273.79 280.27L1324.2 280.694C1324.31 280.694 1324.42 280.693 1324.52 280.771L1339.79 290.917L1391.58 291.416C1391.69 291.416 1391.8 291.416 1391.9 291.494L1409.56 302.258L1462.85 302.756C1462.95 302.756 1463.06 302.756 1463.11 302.833L1483.48 314.216L1538.36 314.713C1538.47 314.713 1538.52 314.713 1538.63 314.79L1561.98 326.945L1618.56 327.441C1618.66 327.441 1618.72 327.441 1618.82 327.518L1645.53 340.446L1703.86 340.94C1703.91 340.94 1704.02 340.94 1704.07 341.018L1734.5 354.873L1794.75 355.366C1794.8 355.366 1794.91 355.365 1794.96 355.443L1822.67 367.285C1823.09 367.439 1823.31 368.137 1823.2 368.758C1823.15 369.3 1822.83 369.611 1822.46 369.611Z" fill="#EBEFF6"/>
<path d="M1822.5 357.979L1794.75 357.77C1794.69 357.77 1794.59 357.77 1794.53 357.692L1762.2 343.838L1703.86 343.344C1703.81 343.344 1703.7 343.344 1703.65 343.267L1675.14 330.263L1618.56 329.767C1618.45 329.767 1618.4 329.768 1618.29 329.69L1593.24 317.536L1538.36 317.039C1538.26 317.039 1538.2 317.039 1538.1 316.962L1516.13 305.503L1462.85 305.005C1462.74 305.005 1462.63 305.005 1462.58 304.928L1443.38 294.165L1391.58 293.665C1391.48 293.665 1391.37 293.665 1391.26 293.588L1374.56 283.443L1324.15 283.02C1324.04 283.02 1323.94 283.02 1323.83 282.943L1309.42 273.417L1260.39 272.992C1260.28 272.992 1260.12 272.915 1260.02 272.837L1247.67 263.775L1199.92 263.349C1199.76 263.35 1199.66 263.272 1199.55 263.195L1189.07 254.673L1142.54 254.247C1142.11 254.247 1141.74 253.705 1141.74 253.084C1141.74 252.464 1142.17 251.921 1142.54 251.92L1189.28 252.347C1189.44 252.346 1189.55 252.424 1189.65 252.501L1200.13 261.023L1247.88 261.448C1247.99 261.448 1248.15 261.526 1248.26 261.603L1260.6 270.666L1309.63 271.09C1309.73 271.09 1309.84 271.09 1309.95 271.167L1324.36 280.693L1374.72 281.117C1374.83 281.117 1374.93 281.116 1375.04 281.194L1391.74 291.339L1443.54 291.838C1443.64 291.838 1443.75 291.838 1443.8 291.915L1463 302.678L1516.29 303.177C1516.39 303.177 1516.45 303.177 1516.55 303.254L1538.52 314.713L1593.4 315.21C1593.51 315.209 1593.56 315.209 1593.66 315.287L1618.72 327.441L1675.24 327.936C1675.3 327.936 1675.4 327.936 1675.46 328.014L1703.97 341.018L1762.3 341.512C1762.35 341.512 1762.46 341.512 1762.51 341.589L1794.85 355.443L1822.5 355.653C1822.93 355.652 1823.3 356.195 1823.3 356.815C1823.3 357.513 1822.98 357.979 1822.5 357.979Z" fill="#EBEFF6"/>
<path d="M1822.6 345.106C1822.55 345.106 1822.44 345.106 1822.39 345.029L1820.64 344.332L1762.3 343.838C1762.25 343.838 1762.14 343.838 1762.09 343.761L1731.77 330.758L1675.25 330.263C1675.19 330.263 1675.09 330.263 1675.03 330.185L1648.28 318.033L1593.4 317.536C1593.29 317.536 1593.24 317.536 1593.13 317.459L1569.52 306.001L1516.24 305.503C1516.13 305.503 1516.08 305.503 1515.97 305.426L1495.28 294.664L1443.48 294.165C1443.38 294.165 1443.27 294.165 1443.22 294.087L1425.08 283.944L1374.72 283.521C1374.62 283.521 1374.51 283.521 1374.4 283.443L1358.6 273.841L1309.58 273.416C1309.47 273.416 1309.36 273.417 1309.26 273.339L1295.59 264.278L1247.83 263.852C1247.73 263.852 1247.57 263.775 1247.46 263.697L1235.76 255.099L1189.23 254.673C1188.8 254.673 1188.43 254.131 1188.43 253.511C1188.43 252.89 1188.8 252.347 1189.23 252.347L1235.97 252.773C1236.07 252.773 1236.23 252.85 1236.34 252.928L1248.04 261.526L1295.8 261.951C1295.9 261.951 1296.01 261.951 1296.12 262.028L1309.79 271.09L1358.82 271.514C1358.92 271.514 1359.03 271.514 1359.13 271.591L1374.93 281.194L1425.29 281.617C1425.4 281.617 1425.5 281.617 1425.56 281.694L1443.7 291.838L1495.49 292.337C1495.6 292.337 1495.65 292.337 1495.75 292.415L1516.45 303.177L1569.73 303.675C1569.84 303.675 1569.89 303.675 1570 303.752L1593.61 315.209L1648.49 315.706C1648.54 315.706 1648.65 315.706 1648.7 315.784L1675.46 327.936L1731.98 328.432C1732.04 328.432 1732.14 328.432 1732.2 328.509L1762.51 341.512L1820.79 342.006C1820.85 342.006 1820.95 342.006 1821.01 342.083L1822.82 342.857C1823.24 343.012 1823.51 343.632 1823.35 344.252C1823.24 344.795 1822.92 345.106 1822.6 345.106Z" fill="#EBEFF6"/>
<path d="M1822.6 344.408L1820.74 344.41C1820.69 344.41 1820.58 344.41 1820.53 344.332L1788.4 331.331L1731.88 330.836C1731.82 330.836 1731.72 330.836 1731.66 330.758L1703.16 318.53L1648.33 318.033C1648.28 318.033 1648.17 318.033 1648.12 317.955L1622.91 306.5L1569.62 306.001C1569.52 306.001 1569.46 306.001 1569.36 305.924L1547.12 295.163L1495.38 294.664C1495.28 294.664 1495.22 294.664 1495.12 294.587L1475.54 284.367L1425.19 283.944C1425.08 283.944 1424.97 283.944 1424.92 283.866L1407.79 274.265L1358.76 273.841C1358.66 273.841 1358.55 273.841 1358.44 273.763L1343.5 264.703L1295.74 264.277C1295.64 264.277 1295.53 264.278 1295.43 264.2L1282.5 255.603L1235.97 255.177C1235.54 255.177 1235.17 254.635 1235.17 254.014C1235.17 253.394 1235.49 252.928 1235.97 252.85L1282.66 253.277C1282.76 253.277 1282.87 253.276 1282.98 253.354L1295.9 261.951L1343.65 262.376C1343.76 262.376 1343.87 262.376 1343.97 262.453L1358.97 271.591L1407.95 272.016C1408.06 272.016 1408.16 272.016 1408.22 272.093L1425.34 281.695L1475.7 282.118C1475.81 282.118 1475.86 282.118 1475.97 282.195L1495.54 292.415L1547.28 292.915C1547.39 292.914 1547.44 292.914 1547.55 292.992L1569.78 303.752L1623.06 304.251C1623.12 304.251 1623.22 304.25 1623.28 304.328L1648.49 315.784L1703.31 316.281C1703.37 316.281 1703.47 316.281 1703.53 316.358L1732.04 328.587L1788.56 329.082C1788.62 329.082 1788.72 329.082 1788.77 329.16L1820.9 342.161L1822.66 342.159C1823.08 342.159 1823.45 342.701 1823.45 343.322C1823.4 343.865 1823.03 344.408 1822.6 344.408Z" fill="#EBEFF6"/>
<path d="M1822.65 331.613L1788.56 331.331C1788.51 331.331 1788.4 331.331 1788.35 331.254L1758.19 319.027L1703.37 318.53C1703.32 318.53 1703.21 318.53 1703.16 318.452L1676.35 306.998L1623.12 306.499C1623.07 306.499 1622.96 306.5 1622.91 306.422L1599.13 295.585L1547.39 295.086C1547.28 295.086 1547.23 295.086 1547.12 295.008L1526.11 284.79L1475.81 284.367C1475.7 284.367 1475.65 284.367 1475.54 284.289L1457.03 274.689L1408 274.265C1407.9 274.265 1407.79 274.265 1407.74 274.187L1391.51 265.05L1343.76 264.625C1343.66 264.625 1343.55 264.625 1343.44 264.548L1329.29 255.952L1282.76 255.525C1282.34 255.526 1281.97 254.983 1281.97 254.363C1281.97 253.743 1282.34 253.122 1282.76 253.199L1329.45 253.625C1329.56 253.625 1329.66 253.625 1329.77 253.703L1343.92 262.298L1391.62 262.724C1391.73 262.724 1391.83 262.724 1391.89 262.801L1408.11 271.938L1457.14 272.362C1457.24 272.362 1457.3 272.362 1457.4 272.44L1475.91 282.04L1526.22 282.463C1526.33 282.463 1526.38 282.463 1526.49 282.541L1547.5 292.759L1599.24 293.259C1599.29 293.259 1599.4 293.259 1599.45 293.336L1623.22 304.173L1676.45 304.671C1676.51 304.671 1676.61 304.671 1676.67 304.749L1703.47 316.203L1758.3 316.7C1758.35 316.7 1758.46 316.7 1758.51 316.777L1788.67 329.005L1822.65 329.286C1823.07 329.286 1823.45 329.829 1823.45 330.449C1823.45 331.069 1823.07 331.613 1822.65 331.613Z" fill="#EBEFF6"/>
<path d="M1822.7 323.16C1822.64 323.16 1822.54 323.16 1822.49 323.16L1813.07 319.523L1758.3 319.026C1758.25 319.026 1758.14 319.027 1758.09 318.949L1729.68 307.418L1676.45 306.92C1676.4 306.92 1676.3 306.92 1676.24 306.843L1650.98 296.007L1599.24 295.508C1599.18 295.508 1599.08 295.508 1599.02 295.43L1576.58 285.213L1526.27 284.79C1526.17 284.79 1526.11 284.79 1526.01 284.712L1506.17 275.035L1457.19 274.611C1457.09 274.611 1457.03 274.611 1456.93 274.534L1439.37 265.398L1391.67 264.973C1391.57 264.973 1391.46 264.973 1391.41 264.895L1376.04 256.3L1329.51 255.874C1329.08 255.874 1328.71 255.332 1328.71 254.711C1328.71 254.091 1329.08 253.548 1329.51 253.548L1376.14 253.974C1376.25 253.974 1376.35 253.974 1376.41 254.051L1391.78 262.646L1439.48 263.071C1439.58 263.071 1439.64 263.071 1439.74 263.149L1457.3 272.285L1506.27 272.709C1506.38 272.709 1506.43 272.709 1506.54 272.786L1526.38 282.463L1576.68 282.886C1576.74 282.886 1576.84 282.886 1576.9 282.964L1599.34 293.181L1651.08 293.681C1651.14 293.681 1651.24 293.681 1651.3 293.758L1676.56 304.594L1729.79 305.092C1729.84 305.092 1729.95 305.092 1730 305.169L1758.4 316.7L1813.18 317.197C1813.23 317.197 1813.34 317.197 1813.39 317.197L1822.91 320.834C1823.33 320.988 1823.6 321.608 1823.49 322.229C1823.39 322.849 1823.02 323.16 1822.7 323.16Z" fill="#EBEFF6"/>
<path d="M1822.7 319.593L1813.12 319.523C1813.07 319.523 1812.96 319.524 1812.91 319.524L1782.91 307.994L1729.74 307.496C1729.68 307.496 1729.58 307.496 1729.52 307.418L1702.72 296.584L1651.03 296.085C1650.98 296.085 1650.87 296.085 1650.82 296.007L1626.94 285.791L1576.63 285.368C1576.58 285.368 1576.47 285.368 1576.42 285.291L1555.2 275.615L1506.22 275.191C1506.11 275.191 1506.06 275.191 1505.95 275.113L1487.13 265.978L1439.43 265.553C1439.32 265.553 1439.27 265.553 1439.16 265.476L1422.51 256.804L1376.04 256.378C1375.61 256.378 1375.24 255.836 1375.24 255.215C1375.24 254.595 1375.66 253.974 1376.03 254.052L1422.67 254.478C1422.78 254.478 1422.83 254.478 1422.94 254.555L1439.58 263.226L1487.28 263.652C1487.39 263.652 1487.44 263.652 1487.55 263.729L1506.38 272.864L1555.35 273.288C1555.41 273.288 1555.51 273.288 1555.57 273.366L1576.79 283.041L1627.09 283.464C1627.15 283.464 1627.25 283.464 1627.31 283.542L1651.19 293.758L1702.88 294.258C1702.93 294.258 1703.04 294.258 1703.09 294.335L1729.9 305.169L1783.07 305.668C1783.13 305.668 1783.23 305.667 1783.28 305.667L1813.28 317.197L1822.75 317.267C1823.17 317.266 1823.55 317.809 1823.55 318.429C1823.49 319.127 1823.12 319.593 1822.7 319.593Z" fill="#EBEFF6"/>
<path d="M1822.74 308.349L1783.02 307.994C1782.97 307.994 1782.86 307.994 1782.81 307.994L1754.51 297.161L1702.82 296.662C1702.77 296.662 1702.66 296.662 1702.61 296.584L1677.29 286.369L1627.04 285.946C1626.99 285.946 1626.88 285.946 1626.83 285.869L1604.28 276.194L1555.3 275.77C1555.25 275.77 1555.14 275.77 1555.09 275.692L1534.98 266.559L1487.29 266.133C1487.18 266.133 1487.13 266.133 1487.02 266.056L1469.15 257.386L1422.67 256.959C1422.25 256.96 1421.87 256.417 1421.87 255.797C1421.87 255.176 1422.24 254.633 1422.67 254.633L1469.31 255.059C1469.41 255.059 1469.47 255.059 1469.57 255.136L1487.44 263.807L1535.14 264.232C1535.2 264.232 1535.3 264.232 1535.36 264.31L1555.46 273.443L1604.44 273.868C1604.49 273.868 1604.6 273.867 1604.65 273.945L1627.2 283.619L1677.45 284.043C1677.51 284.043 1677.61 284.043 1677.67 284.12L1702.98 294.335L1754.67 294.835C1754.72 294.835 1754.83 294.835 1754.88 294.835L1783.18 305.668L1822.79 306.022C1823.22 306.022 1823.59 306.564 1823.59 307.185C1823.54 307.805 1823.22 308.348 1822.74 308.349Z" fill="#EBEFF6"/>
<path d="M1822.79 303.541C1822.74 303.541 1822.69 303.541 1822.58 303.541L1806.31 297.583L1754.62 297.084C1754.56 297.084 1754.46 297.084 1754.41 297.084L1727.7 286.792L1677.45 286.369C1677.4 286.369 1677.29 286.369 1677.24 286.292L1653.31 276.618L1604.38 276.194C1604.33 276.194 1604.22 276.194 1604.17 276.117L1582.79 266.984L1535.14 266.559C1535.09 266.559 1534.98 266.559 1534.93 266.481L1515.84 257.812L1469.36 257.385C1468.93 257.386 1468.56 256.843 1468.56 256.223C1468.56 255.603 1468.83 255.06 1469.36 255.059L1515.94 255.485C1515.99 255.485 1516.1 255.485 1516.15 255.563L1535.25 264.232L1582.89 264.657C1582.95 264.657 1583.05 264.657 1583.11 264.735L1604.49 273.868L1653.41 274.292C1653.46 274.292 1653.57 274.292 1653.62 274.369L1677.56 284.043L1727.81 284.466C1727.86 284.466 1727.97 284.466 1728.02 284.466L1754.72 294.757L1806.41 295.257C1806.46 295.257 1806.52 295.257 1806.62 295.257L1823 301.214C1823.43 301.369 1823.7 301.989 1823.59 302.609C1823.48 303.152 1823.17 303.54 1822.79 303.541Z" fill="#EBEFF6"/>
<path d="M1822.79 297.725L1806.41 297.583C1806.36 297.583 1806.31 297.583 1806.2 297.583L1778.06 287.293L1727.81 286.87C1727.76 286.87 1727.65 286.87 1727.6 286.87L1702.33 277.198L1653.41 276.773C1653.36 276.773 1653.25 276.774 1653.2 276.696L1630.54 267.487L1582.9 267.061C1582.84 267.062 1582.74 267.062 1582.68 266.984L1562.37 258.316L1515.89 257.889C1515.46 257.89 1515.09 257.347 1515.09 256.727C1515.09 256.106 1515.46 255.563 1515.89 255.563L1562.47 255.989C1562.52 255.989 1562.63 255.989 1562.68 256.067L1583 264.735L1630.65 265.16C1630.7 265.16 1630.81 265.16 1630.86 265.238L1653.52 274.447L1702.44 274.871C1702.49 274.871 1702.6 274.871 1702.65 274.871L1727.92 284.543L1778.17 284.967C1778.22 284.967 1778.27 284.967 1778.38 284.966L1806.52 295.257L1822.84 295.398C1823.27 295.398 1823.64 295.94 1823.64 296.561C1823.59 297.181 1823.27 297.724 1822.79 297.725Z" fill="#EBEFF6"/>
<path d="M1822.89 287.643C1822.84 287.643 1822.84 287.643 1822.89 287.643L1778.17 287.215C1778.12 287.215 1778.06 287.216 1777.96 287.216L1751.31 277.467L1702.44 277.043C1702.39 277.043 1702.28 277.043 1702.23 277.043L1678.24 267.835L1630.59 267.409C1630.54 267.409 1630.44 267.409 1630.38 267.332L1608.84 258.587L1562.42 258.161C1561.99 258.161 1561.62 257.619 1561.62 256.998C1561.62 256.378 1561.99 255.835 1562.42 255.834L1608.95 256.261C1609 256.261 1609.11 256.26 1609.16 256.338L1630.7 265.083L1678.35 265.508C1678.4 265.508 1678.51 265.508 1678.56 265.508L1702.55 274.716L1751.41 275.14C1751.47 275.14 1751.52 275.14 1751.63 275.14L1778.27 284.889L1822.89 285.317C1823.31 285.317 1823.69 285.859 1823.69 286.479C1823.63 287.1 1823.32 287.643 1822.89 287.643Z" fill="#EBEFF6"/>
<path d="M1822.89 285.705C1822.84 285.705 1822.78 285.705 1822.68 285.705L1800.29 277.891L1751.42 277.467C1751.36 277.467 1751.31 277.467 1751.2 277.467L1725.94 268.26L1678.35 267.835C1678.29 267.835 1678.19 267.835 1678.13 267.835L1655.42 259.091L1609 258.664C1608.58 258.665 1608.2 258.122 1608.2 257.502C1608.2 256.882 1608.57 256.338 1609 256.338L1655.53 256.764C1655.58 256.764 1655.69 256.764 1655.74 256.764L1678.45 265.508L1726.04 265.934C1726.1 265.933 1726.15 265.933 1726.26 265.933L1751.52 275.14L1800.39 275.565C1800.44 275.565 1800.5 275.565 1800.55 275.565L1823.05 283.378C1823.47 283.533 1823.74 284.153 1823.63 284.773C1823.58 285.394 1823.21 285.704 1822.89 285.705Z" fill="#EBEFF6"/>
<path d="M1822.88 278.105L1800.39 277.891C1800.34 277.891 1800.29 277.891 1800.23 277.891L1773.75 268.685L1726.15 268.26C1726.1 268.26 1726.05 268.26 1725.94 268.26L1702.01 259.517L1655.58 259.091C1655.16 259.091 1654.78 258.549 1654.78 257.928C1654.78 257.308 1655.1 256.765 1655.58 256.764L1702.06 257.191C1702.11 257.191 1702.16 257.191 1702.27 257.191L1726.2 265.933L1773.8 266.359C1773.85 266.359 1773.9 266.359 1773.96 266.359L1800.44 275.565L1822.88 275.779C1823.31 275.778 1823.68 276.321 1823.68 276.941C1823.68 277.639 1823.36 278.105 1822.88 278.105Z" fill="#EBEFF6"/>
<path d="M1822.93 269.575C1822.88 269.575 1822.83 269.575 1822.77 269.575L1821.39 269.111L1773.8 268.685C1773.75 268.685 1773.69 268.685 1773.64 268.685L1748.48 259.944L1702.11 259.517C1701.69 259.518 1701.31 258.975 1701.31 258.355C1701.31 257.734 1701.69 257.191 1702.11 257.191L1748.59 257.617C1748.64 257.617 1748.69 257.617 1748.75 257.617L1773.9 266.359L1821.5 266.784C1821.55 266.784 1821.6 266.784 1821.66 266.784L1823.14 267.248C1823.57 267.403 1823.84 268.023 1823.73 268.644C1823.62 269.264 1823.31 269.574 1822.93 269.575Z" fill="#EBEFF6"/>
<path d="M1822.93 269.109L1821.44 269.111C1821.39 269.111 1821.34 269.111 1821.28 269.111L1794.9 260.37L1748.54 259.944C1748.11 259.944 1747.74 259.401 1747.74 258.781C1747.74 258.161 1748.11 257.618 1748.53 257.617L1795.01 258.044C1795.06 258.044 1795.12 258.043 1795.17 258.043L1821.55 266.784L1822.93 266.783C1823.36 266.783 1823.73 267.325 1823.73 267.946C1823.73 268.566 1823.41 269.109 1822.93 269.109Z" fill="#EBEFF6"/>
<path d="M1819.26 1017.21C1819.1 1017.21 1818.94 1017.13 1818.78 1016.98L1792.82 989.627L-184.164 978.796L-220.673 1018.61C-221.045 1019 -221.524 1018.92 -221.79 1018.38C-222.056 1017.83 -222.003 1017.14 -221.631 1016.75L-184.909 976.703C-184.75 976.547 -184.643 976.547 -184.431 976.47L1793.13 987.3C1793.29 987.3 1793.45 987.377 1793.61 987.532L1819.79 1015.12C1820.16 1015.5 1820.22 1016.2 1819.95 1016.75C1819.79 1017.06 1819.53 1017.21 1819.26 1017.21Z" fill="#EBEFF6"/>
<path d="M1820.17 839.55L1779.17 839.274C1779.01 839.274 1778.85 839.197 1778.75 839.119L1183.24 291.978L399.529 284.957L-177.23 826.952C-177.336 827.107 -177.496 827.108 -177.655 827.108L-220.196 826.833C-220.622 826.833 -220.994 826.291 -220.994 825.671C-220.995 825.05 -220.676 824.43 -220.198 824.507L-177.923 824.781L398.837 282.786C398.943 282.631 399.156 282.631 399.262 282.631L1183.45 289.652C1183.61 289.652 1183.77 289.729 1183.88 289.806L1779.38 837.025L1820.17 837.301C1820.59 837.3 1820.97 837.843 1820.97 838.463C1820.97 839.084 1820.6 839.549 1820.17 839.55Z" fill="#EBEFF6"/>
<path d="M-175.379 242.244L-217.335 241.892C-217.761 241.892 -218.133 241.349 -218.133 240.729C-218.134 240.109 -217.762 239.565 -217.336 239.565L-175.38 239.918C-174.955 239.917 -174.583 240.46 -174.582 241.08C-174.582 241.778 -174.901 242.244 -175.379 242.244Z" fill="#EBEFF6"/>
<path d="M-177.443 260.004L-217.432 259.65C-217.857 259.65 -218.23 259.108 -218.23 258.487C-218.23 257.867 -217.858 257.324 -217.433 257.324L-177.551 257.678L-128.213 240.421C-128.16 240.421 -128.107 240.421 -128.001 240.421L-33.3469 241.272C-32.9215 241.272 -32.549 241.814 -32.5486 242.435C-32.5483 243.055 -32.9202 243.521 -33.3456 243.599L-127.946 242.747L-177.284 260.004C-177.284 260.004 -177.39 260.004 -177.443 260.004Z" fill="#EBEFF6"/>
<path d="M1817.69 1339.65L1725.32 1339.34C1725.11 1339.34 1724.89 1339.19 1724.74 1338.96L1007.58 261.649L574.835 257.669L-9.20142 1191.36C-9.36082 1191.59 -9.5734 1191.83 -9.78615 1191.75L-193.563 1190.97L-221.619 1227.37C-221.938 1227.75 -222.469 1227.75 -222.736 1227.29C-223.055 1226.82 -223.002 1226.05 -222.683 1225.66L-194.361 1188.96C-194.202 1188.8 -194.042 1188.65 -193.83 1188.65L-10.1065 1189.42L573.93 255.808C574.09 255.576 574.249 255.42 574.515 255.42L1007.95 259.4C1008.17 259.4 1008.38 259.555 1008.54 259.787L1725.69 1337.09L1817.74 1337.41C1818.16 1337.41 1818.54 1337.95 1818.54 1338.57C1818.54 1339.19 1818.17 1339.65 1817.69 1339.65Z" fill="#EBEFF6"/>
<path d="M-179.718 279.703L-217.527 279.347C-217.952 279.347 -218.325 278.805 -218.325 278.184C-218.325 277.564 -217.953 277.021 -217.528 277.021L-179.826 277.377L-153.084 267.506C-153.031 267.506 -152.925 267.506 -152.872 267.506L-101.663 268.006L-77.7921 258.68C-77.739 258.68 -77.6858 258.602 -77.5795 258.602L-27.8066 259.026L-6.54121 250.168C-6.48803 250.168 -6.38169 250.168 -6.32856 250.09L90.5584 250.94L108.208 242.55C108.633 242.317 109.059 242.704 109.219 243.324C109.379 243.945 109.113 244.565 108.688 244.798L90.9851 253.266C90.8788 253.266 90.8256 253.343 90.7193 253.343L-6.22084 252.494L-27.4862 261.352C-27.5394 261.352 -27.6457 261.43 -27.6989 261.43L-77.4718 261.006L-101.342 270.332C-101.396 270.332 -101.449 270.332 -101.555 270.41L-152.764 269.91L-179.506 279.78C-179.612 279.703 -179.665 279.703 -179.718 279.703Z" fill="#EBEFF6"/>
<path d="M1819.4 989.759L1793.08 989.626C1792.92 989.627 1792.76 989.549 1792.6 989.394L1121.5 281.328L461.261 275.367L-183.951 978.563C-184.11 978.718 -184.27 978.796 -184.429 978.796L-220.961 978.594C-221.387 978.594 -221.759 978.052 -221.76 977.431C-221.76 976.811 -221.388 976.268 -220.963 976.267L-184.697 976.47L460.516 273.274C460.675 273.119 460.835 273.041 460.994 273.041L1121.76 279.002C1121.92 279.002 1122.08 279.079 1122.24 279.234L1793.4 987.3L1819.46 987.433C1819.88 987.433 1820.25 987.975 1820.25 988.595C1820.2 989.216 1819.88 989.759 1819.4 989.759Z" fill="#EBEFF6"/>
<path d="M-182.312 301.884L-217.621 301.603C-218.046 301.604 -218.419 301.061 -218.419 300.441C-218.419 299.82 -218.047 299.277 -217.622 299.277L-182.419 299.558L-154.03 288.444C-153.976 288.444 -153.923 288.367 -153.817 288.367L-99.6304 288.864L-74.431 278.374C-74.3778 278.374 -74.2715 278.297 -74.2183 278.297L-21.627 278.795L0.648103 268.928C0.701279 268.928 0.807619 268.928 0.860752 268.85L51.9631 269.351L71.6329 260.028C71.7393 260.028 71.7924 259.951 71.8988 259.951L121.565 260.374L155.429 243.053C155.535 242.975 155.588 242.975 155.694 242.975L250.082 243.827C250.508 243.826 250.88 244.369 250.88 244.989C250.881 245.61 250.456 246.075 250.083 246.153L155.802 245.302L121.939 262.623C121.832 262.701 121.779 262.701 121.673 262.701L72.0064 262.277L52.3366 271.599C52.2302 271.599 52.177 271.599 52.0707 271.677L0.968428 271.177L-21.3067 281.044C-21.3599 281.044 -21.4663 281.044 -21.5194 281.122L-74.1106 280.623L-99.3101 291.113C-99.3633 291.113 -99.4696 291.191 -99.5228 291.191L-153.709 290.693L-182.099 301.806C-182.152 301.884 -182.258 301.884 -182.312 301.884Z" fill="#EBEFF6"/>
<path d="M-185.222 326.856L-217.766 326.574C-218.191 326.574 -218.564 326.031 -218.564 325.411C-218.565 324.791 -218.14 324.325 -217.767 324.247L-185.383 324.53L-155.133 311.942C-155.08 311.942 -154.974 311.865 -154.92 311.864L-97.3307 312.359L-70.6962 300.55C-70.643 300.55 -70.5367 300.55 -70.4835 300.472L-14.7017 300.968L8.68944 289.859C8.79579 289.859 8.84892 289.782 8.95527 289.781L63.0355 290.279L83.5023 279.793C83.6086 279.715 83.7149 279.715 83.7681 279.715L136.253 280.214L154.115 270.351C154.221 270.273 154.274 270.273 154.38 270.273L205.376 270.696L220.845 261.377C220.952 261.299 221.058 261.299 221.164 261.299L270.724 261.723L284.067 252.871C284.173 252.794 284.279 252.794 284.386 252.794L380.954 253.643L391.105 245.26C391.477 244.949 391.956 245.104 392.169 245.724C392.382 246.267 392.276 246.965 391.851 247.275L381.54 255.814C381.433 255.892 381.274 255.97 381.167 255.97L284.6 255.12L271.364 263.971C271.258 264.049 271.151 264.049 271.045 264.049L221.485 263.625L206.016 272.944C205.909 273.022 205.803 273.022 205.697 273.022L154.701 272.599L136.839 282.463C136.733 282.54 136.626 282.463 136.573 282.54L84.0885 282.041L63.6216 292.527C63.5153 292.605 63.4621 292.605 63.3558 292.605L9.27562 292.108L-14.1155 303.216C-14.2219 303.217 -14.275 303.217 -14.3813 303.294L-70.1631 302.798L-96.9039 314.685C-96.9571 314.685 -97.0634 314.763 -97.1166 314.763L-154.706 314.268L-184.956 326.856C-185.063 326.856 -185.169 326.856 -185.222 326.856Z" fill="#EBEFF6"/>
<path d="M-217.955 368.294C-218.274 368.294 -218.594 367.985 -218.7 367.442C-218.807 366.821 -218.595 366.201 -218.169 365.968L-188.77 352.915C-188.717 352.915 -188.611 352.838 -188.558 352.838L-125.012 353.405L-94.7632 339.033C-94.6569 339.033 -94.6038 338.956 -94.4974 338.955L-33.1321 339.525L-6.87078 326.087C-6.76447 326.009 -6.65812 326.009 -6.60494 326.009L52.7397 326.502L75.4919 313.921C75.5982 313.843 75.7045 313.843 75.7577 313.843L133.188 314.338L152.75 302.534C152.856 302.456 152.963 302.456 153.069 302.456L208.691 302.953L225.435 291.849C225.542 291.772 225.648 291.694 225.755 291.771L279.675 292.269L293.92 281.788C294.027 281.711 294.133 281.633 294.293 281.633L346.618 282.132L358.577 272.273C358.683 272.196 358.843 272.196 358.949 272.118L409.732 272.541L419.618 263.227C419.724 263.072 419.884 263.072 420.043 263.071L469.391 263.495L477.415 254.726C477.575 254.571 477.734 254.493 477.894 254.493L574.089 255.343L579.19 247.196C579.508 246.731 579.987 246.653 580.306 247.118C580.626 247.583 580.679 248.281 580.36 248.746L574.994 257.281C574.835 257.514 574.569 257.591 574.41 257.669L478.108 256.819L470.083 265.589C469.924 265.744 469.764 265.822 469.605 265.822L420.204 265.398L410.318 274.712C410.212 274.867 410.053 274.867 409.893 274.867L359.057 274.444L347.098 284.303C346.991 284.381 346.885 284.458 346.726 284.458L294.4 283.959L280.155 294.44C280.049 294.518 279.942 294.595 279.783 294.595L225.862 294.098L209.118 305.201C209.012 305.279 208.905 305.279 208.799 305.279L153.177 304.783L133.615 316.586C133.508 316.664 133.455 316.664 133.296 316.664L75.8653 316.169L53.1132 328.751C53.0068 328.828 52.9005 328.829 52.8473 328.829L-6.49726 328.335L-32.7586 341.773C-32.8649 341.851 -32.9181 341.851 -33.0244 341.851L-94.3897 341.282L-124.639 355.653C-124.745 355.653 -124.851 355.654 -124.905 355.731L-188.45 355.164L-217.689 368.294C-217.796 368.294 -217.849 368.294 -217.955 368.294Z" fill="#EBEFF6"/>
<path d="M-188.556 355.242L-217.91 354.956C-218.335 354.956 -218.708 354.414 -218.708 353.793C-218.708 353.173 -218.336 352.63 -217.911 352.63L-188.717 352.915L-156.341 338.542C-156.288 338.542 -156.182 338.542 -156.128 338.464L-94.71 339.033L-66.4279 325.594C-66.3216 325.594 -66.2685 325.516 -66.1621 325.516L-6.81753 326.009L17.7958 313.426C17.9021 313.348 17.9553 313.348 18.0617 313.348L75.4919 313.843L96.862 302.038C96.9683 301.96 97.0215 301.96 97.1278 301.96L152.803 302.456L171.249 291.352C171.355 291.274 171.462 291.274 171.568 291.274L225.542 291.772L241.329 281.289C241.436 281.212 241.542 281.134 241.648 281.212L294.027 281.711L307.475 271.851C307.581 271.773 307.741 271.696 307.847 271.696L358.683 272.118L369.951 262.803C370.058 262.726 370.217 262.648 370.324 262.648L419.724 263.072L438.166 245.763C438.273 245.608 438.432 245.608 438.592 245.608L532.714 246.46C533.139 246.459 533.512 247.002 533.512 247.622C533.512 248.243 533.14 248.708 532.715 248.786L438.806 247.934L420.364 265.242C420.257 265.398 420.098 265.475 419.938 265.398L370.484 264.974L359.216 274.289C359.11 274.367 358.95 274.444 358.844 274.445L307.955 274.022L294.507 283.882C294.4 283.959 294.294 284.037 294.134 284.037L241.756 283.538L225.969 294.02C225.862 294.098 225.756 294.098 225.65 294.098L171.676 293.6L153.23 304.705C153.124 304.783 153.017 304.783 152.911 304.783L97.2355 304.287L75.8654 316.092C75.7591 316.169 75.6527 316.169 75.5996 316.169L18.1162 315.675L-6.4972 328.258C-6.60351 328.335 -6.65669 328.336 -6.76304 328.336L-66.1608 327.843L-94.4428 341.282C-94.5492 341.282 -94.6023 341.36 -94.7086 341.36L-156.127 340.791L-188.503 355.164C-188.397 355.241 -188.45 355.242 -188.556 355.242Z" fill="#EBEFF6"/>
<path d="M1818.41 1199.84L1812.66 1199.84C1812.45 1199.84 1812.29 1199.76 1812.13 1199.53L1063.05 271.219L519.644 266.323L-193.35 1190.66C-193.509 1190.82 -193.722 1190.9 -193.882 1190.97L-222.012 1190.84C-222.437 1190.84 -222.81 1190.3 -222.81 1189.68C-222.81 1189.06 -222.438 1188.52 -222.013 1188.52L-194.202 1188.65L518.738 264.307C518.898 264.152 519.057 263.997 519.27 263.997L1063.32 268.892C1063.53 268.892 1063.69 268.969 1063.85 269.202L1812.93 1197.44L1818.4 1197.43C1818.83 1197.43 1819.2 1197.97 1819.2 1198.59C1819.2 1199.21 1818.83 1199.84 1818.41 1199.84Z" fill="#EBEFF6"/>
<path d="M1822.98 260.579L1795.01 260.292C1794.59 260.293 1794.21 259.75 1794.21 259.13C1794.21 258.51 1794.58 257.889 1795.01 257.966L1822.98 258.253C1823.41 258.252 1823.78 258.795 1823.78 259.415C1823.78 260.036 1823.46 260.579 1822.98 260.579Z" fill="#EBEFF6"/>
<path d="M1822.22 422.886L1810.1 422.819C1809.99 422.819 1809.94 422.819 1809.83 422.742L1737.07 387.441L-157.28 371.268L-217.831 400.088C-218.256 400.321 -218.682 399.934 -218.842 399.314C-219.002 398.694 -218.736 398.073 -218.311 397.84L-157.653 369.019C-157.547 369.019 -157.494 368.941 -157.387 368.941L1737.17 385.037C1737.28 385.037 1737.33 385.037 1737.44 385.114L1810.2 420.415L1822.22 420.482C1822.65 420.482 1823.02 421.025 1823.02 421.645C1823.02 422.42 1822.65 422.886 1822.22 422.886Z" fill="#EBEFF6"/>
<path d="M1822.27 404.895L-218.051 387.681C-218.476 387.681 -218.849 387.139 -218.849 386.518C-218.849 385.898 -218.477 385.433 -218.052 385.355L1822.26 402.569C1822.69 402.569 1823.06 403.111 1823.06 403.731C1823.06 404.352 1822.74 404.895 1822.27 404.895Z" fill="#EBEFF6"/>
<path d="M1821.98 463.444L1819.59 463.446C1819.48 463.446 1819.43 463.446 1819.32 463.368L1641.77 371.003L-61.0931 356.376L-218.023 436.691C-218.448 436.924 -218.874 436.614 -219.034 435.994C-219.194 435.374 -218.981 434.753 -218.556 434.52L-61.5197 354.127C-61.4134 354.05 -61.3602 354.049 -61.2539 354.049L1641.93 368.677C1642.03 368.676 1642.08 368.676 1642.19 368.754L1819.74 461.119L1821.98 461.117C1822.4 461.117 1822.78 461.66 1822.78 462.28C1822.78 462.978 1822.46 463.443 1821.98 463.444Z" fill="#EBEFF6"/>
<path d="M1822.13 442.351L-218.242 425.602C-218.667 425.602 -219.04 425.06 -219.04 424.439C-219.041 423.819 -218.669 423.276 -218.243 423.275L1822.07 440.102C1822.5 440.102 1822.87 440.644 1822.87 441.265C1822.92 441.885 1822.55 442.35 1822.13 442.351Z" fill="#EBEFF6"/>
<path d="M1821.79 506.328C1821.68 506.328 1821.58 506.328 1821.52 506.25L1785.57 486.118L-201.839 470.178L-218.212 479.265C-218.637 479.498 -219.063 479.188 -219.222 478.567C-219.382 477.947 -219.17 477.327 -218.745 477.094L-202.212 467.929C-202.106 467.852 -202 467.852 -201.946 467.851L1785.67 483.792C1785.78 483.791 1785.88 483.791 1785.94 483.869L1822.06 504.078C1822.48 504.311 1822.69 505.009 1822.53 505.552C1822.43 506.094 1822.11 506.327 1821.79 506.328Z" fill="#EBEFF6"/>
<path d="M-217.38 256.238C-217.753 256.238 -218.072 255.851 -218.178 255.308C-218.285 254.688 -218.02 254.067 -217.594 253.912L-200.9 248.392C-200.847 248.392 -200.794 248.392 -200.741 248.392L-103.588 249.241L-80.8864 240.847C-80.4611 240.691 -80.0355 241.079 -79.9288 241.699C-79.8221 242.319 -80.0876 242.94 -80.5129 243.095L-103.321 251.49C-103.374 251.49 -103.427 251.567 -103.533 251.49L-200.686 250.64L-217.327 256.16C-217.274 256.238 -217.327 256.238 -217.38 256.238Z" fill="#EBEFF6"/>
<path d="M-200.686 250.64L-217.384 250.499C-217.809 250.5 -218.181 249.957 -218.182 249.337C-218.182 248.716 -217.81 248.173 -217.385 248.173L-200.794 248.314L-175.54 239.918C-175.487 239.918 -175.434 239.918 -175.38 239.918L-128.001 240.343C-127.575 240.343 -127.203 240.886 -127.202 241.506C-127.202 242.126 -127.574 242.669 -127.999 242.67L-175.273 242.244L-200.527 250.64C-200.58 250.64 -200.633 250.64 -200.686 250.64Z" fill="#EBEFF6"/>
<path d="M1821.89 486.398L1785.67 486.118C1785.57 486.118 1785.46 486.118 1785.41 486.041L1552.85 355.646L28.6068 342.42L-201.679 470.1C-201.786 470.178 -201.892 470.178 -201.945 470.178L-218.43 470.037C-218.855 470.037 -219.228 469.494 -219.228 468.874C-219.228 468.254 -218.91 467.633 -218.431 467.71L-202.106 467.852L28.1802 340.171C28.2865 340.094 28.3928 340.093 28.446 340.093L1552.95 353.319C1553.06 353.319 1553.17 353.319 1553.22 353.396L1785.78 483.791L1821.83 484.072C1822.26 484.071 1822.63 484.614 1822.63 485.234C1822.68 485.854 1822.31 486.398 1821.89 486.398Z" fill="#EBEFF6"/>
<path d="M-217.477 273.996C-217.849 273.997 -218.168 273.609 -218.275 273.066C-218.381 272.446 -218.116 271.825 -217.691 271.67L-204.399 267.006C-204.346 267.006 -204.293 267.006 -204.187 267.006L-152.978 267.506L-127.671 258.179C-127.618 258.179 -127.565 258.179 -127.459 258.179L-77.6859 258.602L-33.5064 241.35C-33.4532 241.35 -33.3469 241.272 -33.2938 241.272L61.3067 242.124C61.7321 242.123 62.1046 242.666 62.105 243.286C62.1053 243.907 61.7334 244.45 61.308 244.45L-33.1861 243.599L-77.3655 260.851C-77.4187 260.851 -77.525 260.929 -77.5782 260.929L-127.404 260.505L-152.711 269.832C-152.764 269.832 -152.817 269.91 -152.923 269.832L-204.132 269.332L-217.317 273.919C-217.37 273.996 -217.423 273.996 -217.477 273.996Z" fill="#EBEFF6"/>
<path d="M-204.238 269.332L-217.479 269.188C-217.905 269.189 -218.277 268.646 -218.278 268.026C-218.278 267.405 -217.906 266.862 -217.481 266.862L-204.346 267.006L-177.657 257.678C-177.604 257.678 -177.497 257.678 -177.444 257.678L-127.618 258.101L-103.694 249.241C-103.641 249.241 -103.535 249.241 -103.481 249.241L-6.43487 250.09L13.7672 241.698C14.1926 241.543 14.6181 241.853 14.778 242.473C14.8847 243.093 14.6724 243.714 14.2471 243.947L-6.06133 252.416C-6.11451 252.416 -6.22085 252.416 -6.27398 252.494L-103.374 251.567L-127.298 260.428C-127.351 260.428 -127.404 260.428 -127.511 260.428L-177.337 260.004L-204.026 269.332C-204.079 269.332 -204.132 269.332 -204.238 269.332Z" fill="#EBEFF6"/>
<path d="M1821.55 555.105C1821.45 555.105 1821.34 555.105 1821.23 555.028L1794.1 538.533L-207.977 523.07L-218.449 529.36C-218.875 529.593 -219.3 529.361 -219.513 528.741C-219.673 528.121 -219.514 527.5 -219.089 527.189L-208.457 520.744C-208.351 520.666 -208.245 520.666 -208.138 520.666L1794.26 536.206C1794.37 536.206 1794.48 536.206 1794.58 536.284L1821.87 552.856C1822.3 553.088 1822.46 553.786 1822.3 554.406C1822.14 554.872 1821.87 555.105 1821.55 555.105Z" fill="#EBEFF6"/>
<path d="M1821.65 538.743L1794.32 538.533C1794.21 538.533 1794.1 538.533 1794 538.455L1469.51 341.292L112.458 329.477L-207.818 522.915C-207.924 522.993 -208.031 522.993 -208.137 522.993L-218.719 522.924C-219.144 522.924 -219.517 522.382 -219.517 521.762C-219.518 521.141 -219.146 520.598 -218.72 520.598L-208.298 520.666L112.031 327.228C112.138 327.151 112.244 327.15 112.35 327.15L1469.67 338.965C1469.78 338.965 1469.88 338.965 1469.99 339.042L1794.47 536.206L1821.65 536.416C1822.07 536.416 1822.45 536.958 1822.45 537.579C1822.45 538.277 1822.07 538.742 1821.65 538.743Z" fill="#EBEFF6"/>
<path d="M-217.572 293.693C-217.944 293.694 -218.263 293.306 -218.37 292.841C-218.477 292.221 -218.211 291.6 -217.786 291.445L-208.376 287.947C-208.323 287.947 -208.216 287.947 -208.163 287.947L-153.923 288.444L-127.182 277.953C-127.129 277.953 -127.022 277.953 -126.969 277.875L-74.3246 278.374L-50.5606 268.506C-50.5074 268.506 -50.4011 268.428 -50.3479 268.428L0.754414 268.928L21.86 259.605C21.9132 259.605 22.0195 259.527 22.0727 259.527L71.7924 259.951L90.4521 251.095C90.5585 251.095 90.6116 251.017 90.718 251.017L187.499 251.867L202.649 243.479C203.074 243.246 203.5 243.556 203.66 244.176C203.82 244.796 203.607 245.417 203.182 245.65L187.872 254.115C187.766 254.193 187.713 254.193 187.606 254.193L90.7724 253.343L72.1127 262.199C72.0063 262.199 71.9532 262.277 71.8469 262.277L22.1272 261.853L1.02157 271.177C0.968391 271.177 0.862078 271.254 0.808902 271.254L-50.3466 270.754L-74.1106 280.623C-74.1638 280.623 -74.2701 280.701 -74.3233 280.701L-126.968 280.202L-153.603 290.693C-153.656 290.693 -153.762 290.771 -153.816 290.771L-208.055 290.273L-217.359 293.693C-217.466 293.693 -217.519 293.693 -217.572 293.693Z" fill="#EBEFF6"/>
<path d="M-208.162 290.196L-217.574 290.126C-217.999 290.127 -218.372 289.584 -218.372 288.964C-218.373 288.343 -218.054 287.723 -217.575 287.8L-208.269 287.869L-179.933 277.454C-179.879 277.454 -179.826 277.454 -179.72 277.454L-127.075 277.953L-101.822 268.083C-101.769 268.083 -101.663 268.006 -101.61 268.006L-50.4543 268.428L-27.9662 259.104C-27.913 259.104 -27.8067 259.026 -27.7535 259.026L21.9662 259.45L60.9876 242.124C61.0407 242.124 61.147 242.046 61.2002 242.046L155.694 242.898C156.12 242.897 156.492 243.44 156.493 244.06C156.493 244.681 156.121 245.224 155.696 245.224L61.3079 244.373L22.2865 261.698C22.2333 261.698 22.1271 261.776 22.0739 261.776L-27.6458 261.352L-50.134 270.677C-50.1872 270.677 -50.2934 270.754 -50.3466 270.754L-101.502 270.332L-126.755 280.202C-126.808 280.202 -126.861 280.279 -126.968 280.279L-179.665 279.781L-208.002 290.273C-208.002 290.196 -208.109 290.196 -208.162 290.196Z" fill="#EBEFF6"/>
<path d="M-217.666 315.717C-218.038 315.717 -218.357 315.407 -218.411 314.864C-218.517 314.244 -218.252 313.624 -217.827 313.468L-212.723 311.448C-212.67 311.448 -212.617 311.37 -212.51 311.37L-154.867 311.864L-126.478 300.053C-126.425 300.053 -126.372 299.976 -126.265 299.976L-70.4303 300.472L-45.3907 289.362C-45.3376 289.362 -45.2844 289.284 -45.1781 289.284L8.95527 289.781L31.0174 279.294C31.1237 279.294 31.1768 279.216 31.2832 279.216L83.8213 279.715L103.172 269.851C103.278 269.773 103.331 269.773 103.438 269.773L154.434 270.195L171.338 260.798C171.444 260.72 171.551 260.72 171.604 260.72L221.217 261.144L249.923 243.827C250.029 243.749 250.135 243.749 250.242 243.749L344.576 244.601C345.002 244.6 345.374 245.143 345.374 245.763C345.375 246.384 345.003 246.927 344.577 246.927L250.296 246.153L221.591 263.47C221.485 263.548 221.378 263.548 221.272 263.548L171.659 263.124L154.754 272.522C154.648 272.599 154.541 272.599 154.488 272.599L103.439 272.177L84.0885 282.041C83.9822 282.119 83.929 282.119 83.8226 282.119L31.2845 281.62L9.27562 292.108C9.16927 292.108 9.11614 292.185 9.00978 292.185L-45.1235 291.688L-70.1631 302.798C-70.2163 302.798 -70.3227 302.798 -70.3758 302.876L-126.211 302.38L-154.6 314.191C-154.653 314.191 -154.76 314.268 -154.813 314.268L-212.456 313.774L-217.453 315.717C-217.559 315.717 -217.613 315.717 -217.666 315.717Z" fill="#EBEFF6"/>
<path d="M-212.615 313.696L-217.72 313.623C-218.146 313.623 -218.518 313.081 -218.519 312.461C-218.519 311.84 -218.147 311.297 -217.722 311.297L-212.723 311.37L-182.526 299.558C-182.473 299.558 -182.366 299.48 -182.313 299.48L-126.478 299.976L-99.7368 288.864C-99.6836 288.864 -99.5773 288.864 -99.5242 288.787L-45.3376 289.284L-21.7334 278.795C-21.6803 278.795 -21.5739 278.718 -21.5208 278.718L31.0173 279.217L51.8567 269.351C51.9631 269.351 52.0162 269.273 52.1226 269.273L103.172 269.773L121.459 260.452C121.565 260.374 121.618 260.374 121.725 260.374L171.338 260.798L187.339 251.944C187.445 251.867 187.499 251.867 187.605 251.866L284.279 252.716L296.93 244.33C297.356 244.097 297.781 244.33 297.994 244.872C298.154 245.493 297.995 246.113 297.623 246.424L284.812 254.887C284.706 254.965 284.6 254.965 284.493 254.965L187.766 254.115L171.765 262.969C171.658 263.047 171.552 263.047 171.499 263.047L121.886 262.623L103.598 271.944C103.492 272.022 103.439 272.022 103.332 272.022L52.2833 271.522L31.4439 281.388C31.3376 281.388 31.2845 281.465 31.1781 281.465L-21.4131 280.966L-45.0173 291.455C-45.0705 291.455 -45.1768 291.533 -45.23 291.533L-99.4165 291.035L-126.104 302.302C-126.158 302.302 -126.264 302.302 -126.317 302.38L-182.205 301.884L-212.403 313.696C-212.456 313.696 -212.509 313.696 -212.615 313.696Z" fill="#EBEFF6"/>
<path d="M1821.27 613.033C1821.16 613.033 1821.05 613.033 1820.95 612.956L1804.51 602.035L-215.439 586.975L-218.735 589.15C-219.16 589.383 -219.586 589.15 -219.799 588.608C-219.959 587.987 -219.799 587.367 -219.427 587.056L-215.972 584.805C-215.866 584.727 -215.706 584.727 -215.653 584.727L1804.67 599.709C1804.77 599.709 1804.88 599.709 1804.99 599.786L1821.53 610.784C1821.96 611.016 1822.12 611.714 1821.9 612.335C1821.85 612.722 1821.58 613.033 1821.27 613.033Z" fill="#EBEFF6"/>
<path d="M1821.31 602.176L1804.67 602.035C1804.56 602.035 1804.46 602.035 1804.35 601.958L1391.34 327.864L191.045 317.236L-215.28 586.898C-215.386 586.975 -215.546 586.975 -215.599 586.976L-219.002 586.978C-219.427 586.979 -219.8 586.436 -219.8 585.816C-219.801 585.195 -219.429 584.652 -219.003 584.652L-215.76 584.649L190.512 314.988C190.618 314.91 190.725 314.91 190.831 314.91L1391.5 325.46C1391.6 325.46 1391.71 325.459 1391.81 325.537L1804.83 599.631L1821.26 599.773C1821.68 599.772 1822.06 600.315 1822.06 600.935C1822.11 601.633 1821.74 602.176 1821.31 602.176Z" fill="#EBEFF6"/>
<path d="M-156.021 340.868C-156.074 340.868 -156.074 340.868 -156.021 340.868L-217.492 340.299L-217.546 340.299C-217.971 340.455 -218.397 340.145 -218.556 339.525C-218.663 338.904 -218.451 338.284 -218.026 338.051L-217.866 337.973C-217.813 337.973 -217.707 337.895 -217.653 337.895L-156.182 338.464L-125.879 325.023C-125.826 325.023 -125.72 324.946 -125.666 324.946L-66.2686 325.439L-39.7941 312.854C-39.6877 312.854 -39.6346 312.776 -39.5282 312.776L17.9552 313.271L41.08 301.464C41.1864 301.387 41.2395 301.387 41.3459 301.386L97.0213 301.883L117.116 290.777C117.222 290.699 117.275 290.621 117.381 290.699L171.408 291.196L188.738 280.713C188.844 280.635 188.951 280.635 189.057 280.635L241.489 281.134L256.372 271.273C256.479 271.196 256.585 271.196 256.691 271.195L307.581 271.618L320.285 262.302C320.391 262.224 320.497 262.147 320.657 262.146L370.111 262.57L380.794 253.721C380.9 253.643 381.007 253.566 381.166 253.566L477.575 254.416L485.174 246.112C485.546 245.724 486.025 245.801 486.291 246.343C486.557 246.886 486.504 247.584 486.132 247.972L478.32 256.509C478.161 256.664 478.001 256.742 477.842 256.742L381.38 255.892L370.697 264.741C370.59 264.819 370.431 264.897 370.325 264.897L320.818 264.473L308.114 273.789C308.008 273.867 307.901 273.944 307.742 273.944L256.852 273.522L241.968 283.383C241.862 283.46 241.809 283.46 241.649 283.461L189.218 282.962L171.941 293.522C171.835 293.6 171.729 293.6 171.622 293.6L117.595 293.103L97.5012 304.209C97.3949 304.286 97.3418 304.286 97.2355 304.287L41.5068 303.79L18.4351 315.674C18.3288 315.752 18.2756 315.752 18.1693 315.752L-39.3141 315.257L-65.8418 327.842C-65.9482 327.842 -66.0014 327.842 -66.1077 327.92L-125.505 327.427L-155.808 340.868C-155.914 340.868 -155.968 340.868 -156.021 340.868Z" fill="#EBEFF6"/>
<path d="M-217.652 340.299L-217.865 340.3C-218.29 340.3 -218.663 339.757 -218.663 339.137C-218.663 338.517 -218.291 337.973 -217.866 337.973L-217.813 337.973L-185.543 324.53C-185.489 324.53 -185.436 324.453 -185.33 324.453L-125.879 324.946L-97.4902 312.359C-97.4371 312.359 -97.3308 312.282 -97.2776 312.282L-39.741 312.776L-14.8613 300.968C-14.7549 300.968 -14.7018 300.891 -14.5955 300.89L41.1332 301.387L62.8759 290.279C62.9822 290.202 63.0353 290.202 63.1417 290.201L117.169 290.699L136.093 280.214C136.2 280.137 136.253 280.137 136.359 280.137L188.791 280.636L205.164 270.773C205.27 270.696 205.376 270.696 205.483 270.695L256.425 271.118L270.512 261.801C270.618 261.723 270.724 261.723 270.831 261.723L320.338 262.147L343.938 244.834C344.044 244.756 344.204 244.679 344.31 244.679L438.538 245.53C438.964 245.53 439.336 246.072 439.337 246.693C439.337 247.313 438.965 247.856 438.54 247.857L344.524 247.005L320.924 264.318C320.818 264.395 320.711 264.395 320.552 264.473L271.045 264.049L256.958 273.367C256.852 273.444 256.693 273.444 256.639 273.444L205.697 273.022L189.324 282.884C189.218 282.962 189.111 282.962 189.005 282.962L136.52 282.463L117.595 292.948C117.489 293.025 117.436 293.025 117.33 293.025L63.2494 292.528L41.5067 303.635C41.4004 303.713 41.3472 303.713 41.2408 303.713L-14.4878 303.217L-39.3675 315.025C-39.4738 315.025 -39.527 315.025 -39.6333 315.103L-97.1699 314.608L-125.559 327.194C-125.612 327.194 -125.718 327.272 -125.771 327.272L-185.222 326.779L-217.493 340.222C-217.493 340.299 -217.546 340.299 -217.652 340.299Z" fill="#EBEFF6"/>
<g opacity="0.8">
<g opacity="0.2" filter="url(#filter0_f_2536_30)">
<path d="M1325.64 549.919L861.966 547.558L860.109 1323.2L1787.45 1327.92L1789.31 552.279L1325.64 549.919Z" fill="black" fill-opacity="0.31"/>
</g>
<g opacity="0.2" filter="url(#filter1_f_2536_30)">
<ellipse cx="420.255" cy="147.354" rx="420.255" ry="147.354" transform="matrix(0.999987 0.00509044 -0.00239362 0.999997 905.447 522.467)" fill="black"/>
</g>
</g>
<g opacity="0.5">
<g opacity="0.2" filter="url(#filter2_f_2536_30)">
<path d="M357.027 483.558L61.3428 482.053L60.1588 976.681L651.527 979.691L652.711 485.063L357.027 483.558Z" fill="black" fill-opacity="0.31"/>
</g>
<g opacity="0.2" filter="url(#filter3_f_2536_30)">
<ellipse cx="267.998" cy="93.968" rx="267.998" ry="93.968" transform="matrix(0.999987 0.00509044 -0.00239362 0.999997 89.0713 466.052)" fill="black"/>
</g>
</g>
<rect x="-35" y="206" width="1560" height="261" fill="url(#paint0_linear_2536_30)"/>
<rect width="1559.74" height="999.609" transform="matrix(0.999948 0.0101806 0.00478727 -0.999988 -45.001 1072.02)" fill="url(#paint1_linear_2536_30)"/>
</g>
<defs>
<filter id="filter0_f_2536_30" x="553.391" y="240.84" width="1542.64" height="1393.8" filterUnits="userSpaceOnUse" color-interpolation-filters="sRGB">
<feFlood flood-opacity="0" result="BackgroundImageFix"/>
<feBlend mode="normal" in="SourceGraphic" in2="BackgroundImageFix" result="shape"/>
<feGaussianBlur stdDeviation="153.359" result="effect1_foregroundBlur_2536_30"/>
</filter>
<filter id="filter1_f_2536_30" x="598.376" y="217.872" width="1453.94" height="908.176" filterUnits="userSpaceOnUse" color-interpolation-filters="sRGB">
<feFlood flood-opacity="0" result="BackgroundImageFix"/>
<feBlend mode="normal" in="SourceGraphic" in2="BackgroundImageFix" result="shape"/>
<feGaussianBlur stdDeviation="153.359" result="effect1_foregroundBlur_2536_30"/>
</filter>
<filter id="filter2_f_2536_30" x="-135.436" y="286.458" width="983.742" height="888.828" filterUnits="userSpaceOnUse" color-interpolation-filters="sRGB">
<feFlood flood-opacity="0" result="BackgroundImageFix"/>
<feBlend mode="normal" in="SourceGraphic" in2="BackgroundImageFix" result="shape"/>
<feGaussianBlur stdDeviation="97.7975" result="effect1_foregroundBlur_2536_30"/>
</filter>
<filter id="filter3_f_2536_30" x="-106.748" y="271.811" width="927.178" height="579.146" filterUnits="userSpaceOnUse" color-interpolation-filters="sRGB">
<feFlood flood-opacity="0" result="BackgroundImageFix"/>
<feBlend mode="normal" in="SourceGraphic" in2="BackgroundImageFix" result="shape"/>
<feGaussianBlur stdDeviation="97.7975" result="effect1_foregroundBlur_2536_30"/>
</filter>
<linearGradient id="paint0_linear_2536_30" x1="745.913" y1="223.144" x2="745.119" y2="467" gradientUnits="userSpaceOnUse">
<stop offset="0.228616" stop-color="white"/>
<stop offset="1" stop-color="white" stop-opacity="0"/>
</linearGradient>
<linearGradient id="paint1_linear_2536_30" x1="780.783" y1="65.6619" x2="769.141" y2="999.475" gradientUnits="userSpaceOnUse">
<stop stop-color="white"/>
<stop offset="1" stop-color="white" stop-opacity="0"/>
</linearGradient>
</defs>
</svg>
