<svg width="32" height="32" viewBox="0 0 32 32" fill="none" xmlns="http://www.w3.org/2000/svg">
<mask id="mask0_1014_223457" style="mask-type:alpha" maskUnits="userSpaceOnUse" x="0" y="4" width="32" height="22">
<path fill-rule="evenodd" clip-rule="evenodd" d="M0 9.33301L5.98291 23.692C5.98307 23.6924 5.98323 23.6928 5.98339 23.6931C6.39771 24.6862 7.36833 25.333 8.44444 25.333H23.5556C24.0085 25.333 24.4427 25.2184 24.8246 25.0117L0 9.33301Z" fill="url(#paint0_linear_1014_223457)"/>
<path fill-rule="evenodd" clip-rule="evenodd" d="M8.44288 25.333H23.554C24.6294 25.333 25.5995 24.687 26.0142 23.695C26.0147 23.694 26.0151 23.693 26.0155 23.692L31.9984 9.33301L7.17383 25.0117C7.55575 25.2184 7.98997 25.333 8.44288 25.333Z" fill="url(#paint1_linear_1014_223457)"/>
<path fill-rule="evenodd" clip-rule="evenodd" d="M8.44273 25.3333H23.5538C24.1254 25.3333 24.6673 25.1508 25.1118 24.8309L15.9983 4L6.88477 24.8309C7.32928 25.1508 7.87112 25.3333 8.44273 25.3333Z" fill="black"/>
</mask>
<g mask="url(#mask0_1014_223457)">
<path d="M0 0H32V32H0V0Z" fill="#9299A2"/>
</g>
<defs>
<linearGradient id="paint0_linear_1014_223457" x1="12.9448" y1="9.33301" x2="12.9448" y2="25.333" gradientUnits="userSpaceOnUse">
<stop/>
<stop offset="1" stop-opacity="0.7"/>
</linearGradient>
<linearGradient id="paint1_linear_1014_223457" x1="19.0536" y1="9.33301" x2="19.0536" y2="25.333" gradientUnits="userSpaceOnUse">
<stop/>
<stop offset="1" stop-opacity="0.7"/>
</linearGradient>
</defs>
</svg>
