<svg width="32" height="32" viewBox="0 0 32 32" fill="none" xmlns="http://www.w3.org/2000/svg">
<mask id="mask0_535_193210" style="mask-type:alpha" maskUnits="userSpaceOnUse" x="1" y="6" width="30" height="20">
<path fill-rule="evenodd" clip-rule="evenodd" d="M1.33331 10C1.33331 7.79086 3.12417 6 5.33331 6H30.6666V22C30.6666 24.2091 28.8758 26 26.6666 26H16V24.6667C16 21.7211 13.6122 19.3333 10.6666 19.3333H5.99998C3.99196 19.3333 2.24313 20.4431 1.33331 22.0827V10ZM21.3333 11.3333C19.8606 11.3333 18.6666 12.5272 18.6666 14H24.6666C26.1394 14 27.3333 12.8061 27.3333 11.3333H21.3333ZM18.6666 19.3333C18.6666 17.8606 19.8606 16.6667 21.3333 16.6667H24.6666C24.6666 18.1394 23.4727 19.3333 22 19.3333H18.6666ZM5.33331 9.33333H9.99998C11.4727 9.33333 12.6666 10.5272 12.6666 12V14.3333C12.6666 16.3584 11.025 18 8.99998 18C6.97494 18 5.33331 16.3584 5.33331 14.3333V9.33333Z" fill="url(#paint0_linear_535_193210)"/>
<path fill-rule="evenodd" clip-rule="evenodd" d="M16 26V24.6667C16 21.7212 13.6122 19.3333 10.6666 19.3333H5.99998C3.99196 19.3333 2.24313 20.4431 1.33331 22.0827V26H16Z" fill="url(#paint1_linear_535_193210)"/>
<path fill-rule="evenodd" clip-rule="evenodd" d="M12.4408 10.9242C12.0272 9.98728 11.09 9.33334 9.99998 9.33334H5.33331V14.3333C5.33331 15.472 5.85231 16.4894 6.66665 17.1619V14C6.66665 12.8954 7.56208 12 8.66665 12H10.6666C11.4378 12 12.107 11.5636 12.4408 10.9242Z" fill="url(#paint2_linear_535_193210)"/>
</mask>
<g mask="url(#mask0_535_193210)">
<path d="M0 0H32V32H0V0Z" fill="#9299A2"/>
</g>
<defs>
<linearGradient id="paint0_linear_535_193210" x1="5.87998" y1="8.64286" x2="24.1634" y2="22.4741" gradientUnits="userSpaceOnUse">
<stop/>
<stop offset="1" stop-opacity="0.7"/>
</linearGradient>
<linearGradient id="paint1_linear_535_193210" x1="5.73331" y1="20.1026" x2="6.10141" y2="26.156" gradientUnits="userSpaceOnUse">
<stop stop-opacity="0.15"/>
<stop offset="1" stop-opacity="0.35"/>
</linearGradient>
<linearGradient id="paint2_linear_535_193210" x1="10.0875" y1="9.33334" x2="9.10544" y2="18.0043" gradientUnits="userSpaceOnUse">
<stop stop-opacity="0.4"/>
<stop offset="1" stop-opacity="0.1"/>
</linearGradient>
</defs>
</svg>
